
        <svg xmlns="http://www.w3.org/2000/svg" xmlns:xlink="http://www.w3.org/1999/xlink" version="1.1" width="3174.6164677584434" height="850.9592161770531" viewBox="0 0 3174.6164677584434 850.9592161770531">
			
			<g transform="scale(8.730823387922175) translate(10, 10)">
				<defs id="SvgjsDefs13237"/><g id="SvgjsG13238" featureKey="monogramFeature-0" transform="matrix(4.472635101575815,0,0,4.472635101575815,2.504675400956223,-11.986655972647954)" fill="#000"><path d="M3.58 20 l-0.04 0 c-0.08 0 -0.24 -0.04 -0.4 -0.08 c-0.54 -0.18 -1.12 -0.6 -1.3 -0.94 c-0.04 -0.06 -0.14 -0.16 -0.24 -0.22 c-0.12 -0.06 -0.42 -0.42 -0.52 -0.62 l-0.1 -0.16 c-0.32 -0.38 -0.54 -0.94 -0.58 -1.52 c0 -0.18 -0.04 -0.36 -0.06 -0.38 l-0.02 -0.06 l0.06 -0.12 l-0.04 -0.12 l-0.02 -0.2 c0.02 -0.02 0.04 -0.24 0.06 -0.48 c0 -0.26 0.04 -0.5 0.06 -0.56 l0.04 -0.12 l-0.02 -0.08 l0.04 -0.32 c0.04 -0.12 0.04 -0.2 0.04 -0.26 c0 -0.1 -0.02 -0.14 -0.08 -0.14 s-0.26 -0.26 -0.3 -0.42 c-0.02 -0.06 -0.06 -0.08 -0.08 -0.08 c-0.08 0 -0.18 -0.28 -0.18 -0.4 l0 -0.08 c0 -0.04 -0.04 -0.16 -0.08 -0.28 l-0.08 -0.24 c0 -0.04 0.04 -0.06 0.08 -0.08 c0.08 -0.04 0.28 -0.08 0.48 -0.08 c0.6 -0.06 0.72 -0.1 0.72 -0.2 c0 -0.04 0.02 -0.06 0.04 -0.06 l0.02 0 l0.04 -0.02 l-0.02 -0.06 c0 -0.06 0.02 -0.1 0.06 -0.1 c0.02 0 0.04 -0.02 0.04 -0.04 l-0.02 -0.04 c-0.02 -0.02 -0.02 -0.06 -0.02 -0.1 c0 -0.08 0.02 -0.18 0.06 -0.18 l0.02 0 c0.06 0 0.12 -0.12 0.12 -0.22 l-0.02 -0.08 l0.04 0 c0.04 0 0.06 -0.02 0.06 -0.04 l0 -0.04 c0 -0.2 0.12 -0.88 0.18 -0.92 l0.02 -0.06 l0 -0.02 c0 -0.06 0.04 -0.22 0.16 -0.54 c0.06 -0.12 0.08 -0.22 0.08 -0.24 c0 -0.04 0.2 -0.58 0.24 -0.62 c0.04 -0.02 0.08 -0.14 0.1 -0.26 c0.02 -0.14 0.1 -0.4 0.18 -0.58 l0.12 -0.36 c0 -0.1 0.22 -0.68 0.3 -0.8 c0.02 -0.06 0.06 -0.16 0.06 -0.2 c0 -0.06 0 -0.08 -0.08 -0.08 l-0.14 0.02 c-0.12 0 -0.22 0 -0.24 -0.04 c0 -0.02 0.06 -0.04 0.14 -0.04 s0.16 -0.02 0.18 -0.06 c0 -0.02 0.04 -0.04 0.1 -0.04 l0.04 0 c0.02 0 0.04 -0.02 0.04 -0.04 s-0.02 -0.02 -0.04 -0.02 c-0.06 0 -0.16 0.02 -0.32 0.08 c-0.2 0.08 -0.44 0.16 -0.52 0.18 c-0.1 0.04 -0.14 0.06 -0.14 0.08 s0.02 0.02 0.1 0.02 l0.24 -0.02 l0.08 0.02 c0 0.02 -0.12 0.08 -0.26 0.14 c-0.12 0.04 -0.2 0.08 -0.24 0.08 c-0.02 0 -0.04 -0.02 -0.04 -0.04 l-0.02 -0.06 c0 -0.02 0.02 -0.04 0.04 -0.06 l0.04 -0.04 l0 -0.02 l-0.06 0.02 c-0.36 0.14 -0.54 0.24 -0.54 0.3 l0 0.04 c0 0.02 0 0.02 -0.02 0.02 l-0.04 0 c-0.04 0 -0.22 0.06 -0.4 0.16 c-0.16 0.1 -0.34 0.18 -0.38 0.18 c-0.1 0 -0.44 -0.26 -0.48 -0.38 c-0.02 -0.06 -0.08 -0.16 -0.14 -0.24 s-0.12 -0.22 -0.14 -0.34 s-0.06 -0.22 -0.1 -0.24 c-0.06 -0.04 -0.1 -0.14 -0.1 -0.24 c0 -0.08 0.02 -0.16 0.06 -0.22 c0.16 -0.18 0.58 -0.42 0.96 -0.52 c0.16 -0.06 0.32 -0.12 0.32 -0.14 c0.02 -0.02 0.12 -0.06 0.24 -0.08 s0.28 -0.08 0.32 -0.12 c0.06 -0.06 0.2 -0.1 0.3 -0.1 c0.18 0 0.26 -0.02 0.26 -0.08 l-0.02 -0.06 s0.02 -0.02 0.06 -0.02 l0.02 0 c0.06 0 0.16 -0.02 0.22 -0.06 c0.2 -0.1 0.62 -0.22 0.78 -0.22 l0.04 0 c0.04 0 0.06 0 0.08 -0.04 c0 -0.02 0.08 -0.04 0.16 -0.04 c0.12 0 0.14 -0.04 0.18 -0.22 c0.02 -0.12 0.04 -0.18 0.1 -0.18 s0.16 0.04 0.28 0.12 s0.24 0.12 0.34 0.12 c0.04 0 0.08 -0.02 0.1 -0.04 s0.44 -0.12 0.84 -0.18 c0.04 -0.02 0.16 -0.04 0.26 -0.06 l0.4 -0.06 c0.14 0 0.26 -0.02 0.28 -0.04 l0.06 -0.02 l0.12 0.04 l0.08 0.02 c0.02 0 0.02 0 0.02 -0.02 l0 -0.02 c0 -0.1 0.64 -0.24 1.1 -0.26 c0.2 0 0.36 -0.02 0.36 -0.04 c0 -0.06 0.44 -0.14 0.9 -0.16 c0.26 -0.02 0.52 -0.04 0.54 -0.06 c0.04 -0.04 0.1 -0.06 0.14 -0.06 c0.04 -0.02 0.7 -0.02 1.14 -0.02 l0.38 0 c0.04 0 0.06 0.02 0.06 0.02 c0 0.04 -0.06 0.08 -0.16 0.08 c-0.12 0 -0.18 0.04 -0.18 0.08 c0 0.02 0 0.04 0.04 0.06 l0.02 0 c0.02 0 0.02 -0.02 0.04 -0.04 l0.02 -0.04 c0.02 0 0.02 0 0.02 0.04 c0.02 0.02 0.04 0.04 0.06 0.04 l0.12 -0.02 c0.12 0 0.26 0.06 0.28 0.12 c0 0.04 0.04 0.08 0.08 0.08 c0.02 0.02 0.04 0.04 0.04 0.06 l0 0.04 c0 0.06 -0.1 0.1 -0.3 0.12 c-0.16 0.02 -0.28 0.06 -0.28 0.08 s0.04 0.02 0.06 0.02 l0.16 -0.02 c0.16 0 0.36 0.06 0.38 0.1 c0 0.04 -0.04 0.08 -0.12 0.08 c-0.06 0.02 -0.1 0.04 -0.1 0.08 c0 0.02 0.06 0.06 0.14 0.08 l-0.12 0 c-0.12 0 -0.28 -0.04 -0.36 -0.06 l-0.08 -0.02 l0.06 0.06 c0.04 0.04 0.08 0.08 0.08 0.1 l-0.32 0.12 c-0.08 0.04 -0.12 0.06 -0.12 0.08 l0.04 0 c0.08 0 0.12 0.04 0.12 0.08 s-0.04 0.08 -0.12 0.08 c-0.28 0.02 -0.64 0.04 -0.7 0.08 l-0.02 0 c-0.02 0 -0.04 -0.02 -0.04 -0.06 l0 -0.02 c0 -0.02 0 -0.02 -0.02 -0.02 l-0.04 0 c-0.02 0.02 -0.04 0.04 -0.04 0.06 l0 0.02 c0 0.02 -0.02 0.04 -0.06 0.04 l-0.04 0 c-0.12 0 -0.28 0.06 -0.28 0.12 s-0.16 0.1 -0.46 0.16 l-0.82 0.16 c-0.18 0.04 -0.48 0.08 -0.64 0.1 l-0.24 0.02 c-0.08 0 -0.1 -0.02 -0.14 -0.08 c-0.04 -0.04 -0.06 -0.08 -0.08 -0.08 l-0.02 0 c-0.02 0 -0.08 0 -0.14 -0.04 l-0.08 -0.04 c0 0.02 0.06 0.08 0.14 0.14 l0.1 0.08 l-0.18 0.1 l-0.04 -0.02 c0 -0.02 0.02 -0.06 0.06 -0.06 l0 -0.02 s-0.04 -0.02 -0.1 -0.02 c-0.08 0 -0.1 0 -0.1 0.02 s0 0.02 0.04 0.04 l0.02 0.02 c0 0.02 0 0.02 -0.02 0.02 l-0.12 -0.02 l-0.28 0 l-0.04 0.04 c0 0.04 0.06 0.06 0.1 0.06 l0.08 -0.02 l-0.04 0.06 c-0.06 0.06 -0.66 0.2 -0.9 0.2 c-0.12 0 -0.26 0.08 -0.26 0.14 l0 0.02 c0 0.02 0.06 0.02 0.12 0.02 l0.16 -0.02 l0.04 0.02 c0 0.02 -0.14 0.06 -0.34 0.12 c-0.12 0.04 -0.2 0.06 -0.2 0.1 l0.04 0.06 l-0.04 0.06 c-0.08 0.08 -0.1 0.16 -0.1 0.22 c0 0.04 0 0.06 0.04 0.1 l0.06 0.06 c0 0.02 -0.04 0.02 -0.08 0.02 c-0.08 0 -0.16 0.16 -0.3 0.58 c0 0.04 -0.08 0.22 -0.14 0.4 l-0.42 1.14 c-0.04 0.08 -0.08 0.2 -0.08 0.24 l0 0.02 c0 0.08 -0.06 0.28 -0.14 0.48 c-0.1 0.24 -0.18 0.48 -0.2 0.56 s-0.06 0.14 -0.08 0.14 s-0.02 0 -0.02 0.02 l0 0.04 c0 0.02 -0.04 0.16 -0.1 0.3 c-0.06 0.12 -0.1 0.24 -0.1 0.28 l0 0.02 c0 0.02 -0.04 0.2 -0.12 0.38 c-0.12 0.32 -0.2 0.62 -0.2 0.74 c0 0.04 0 0.08 0.02 0.08 l0.02 0 l0.02 -0.04 c0 -0.04 0.02 -0.04 0.06 -0.04 l0.04 0.02 l0.08 -0.04 c0.02 -0.02 0.04 -0.04 0.06 -0.04 l0.02 0.02 l0.08 -0.04 c0.06 -0.02 0.18 -0.06 0.3 -0.08 c0.12 0 0.32 -0.06 0.48 -0.12 c0.12 -0.04 0.18 -0.06 0.22 -0.06 s0.06 0.02 0.08 0.06 c0.02 0.02 0.04 0.04 0.06 0.04 l0 -0.02 c0 -0.06 0.28 -0.2 0.54 -0.24 l0.12 -0.02 l0.04 0.02 l-0.06 0.08 l-0.02 0.06 c0 0.02 0 0.02 0.04 0.02 c0.06 0 0.08 -0.02 0.08 -0.04 l0 -0.04 c0 -0.08 0.1 -0.14 0.2 -0.14 l0.1 0 c0.06 0 0.12 -0.02 0.14 -0.04 c0.06 -0.08 0.54 -0.2 0.92 -0.22 c0.1 0 0.22 -0.02 0.24 -0.04 c0.16 -0.12 1.42 -0.36 1.96 -0.36 c0.14 0 0.24 -0.02 0.24 -0.04 c0.02 -0.04 0.08 -0.06 0.12 -0.06 c0.06 0 0.1 0.02 0.1 0.06 c0 0.02 0.04 0.02 0.08 0.02 l0.2 -0.02 l0.04 0.02 l0 0.04 c0 0.02 0.02 0.04 0.04 0.04 s0.04 -0.02 0.04 -0.04 l0 -0.02 c0 -0.02 0.02 -0.04 0.06 -0.06 l0.04 0 c0.02 0 0.04 0.02 0.04 0.1 c0 0.1 0.02 0.12 0.08 0.12 c0.04 0 0.08 -0.02 0.08 -0.04 c0.02 -0.04 0.04 -0.06 0.06 -0.06 c0.04 0 0.1 0.06 0.14 0.14 l0.06 0.12 c0 0.04 -0.04 0.08 -0.08 0.14 s-0.06 0.08 -0.06 0.1 s0.02 0.04 0.04 0.06 c0.04 0.04 0.08 0.06 0.08 0.1 l0 0.04 c0 0.04 0 0.06 -0.02 0.06 l-0.04 -0.02 c-0.02 -0.02 -0.06 -0.04 -0.1 -0.04 l-0.02 0 c-0.02 0.02 -0.04 0.04 -0.04 0.06 s0.04 0.06 0.1 0.06 s0.08 0 0.08 0.02 l-0.02 0.04 c-0.04 0.04 -0.22 0.08 -0.36 0.08 c-0.08 0 -0.14 0 -0.14 -0.04 l0 -0.04 l-0.04 0.04 l-0.06 0.04 c-0.04 0 -0.06 -0.02 -0.12 -0.06 l-0.08 -0.06 l0.08 0.12 l-0.08 0.04 l0.04 0.06 c0 0.02 -0.02 0.02 -0.06 0.02 s-0.08 -0.04 -0.1 -0.1 l0 -0.08 l0.08 0.02 c0 -0.02 -0.06 -0.06 -0.14 -0.1 l-0.1 -0.02 l0.04 0.04 c0.02 0.06 0.04 0.1 0.04 0.14 c0 0.06 -0.02 0.1 -0.08 0.1 c-0.02 0 -0.1 0.06 -0.16 0.12 c-0.04 0.04 -0.1 0.06 -0.14 0.06 l-0.08 0 l0.04 0.1 c0 0.06 -0.06 0.08 -0.16 0.08 l-0.26 -0.04 l-0.04 0.02 l0.04 0.06 c0 0.02 -0.02 0.02 -0.06 0.02 l-0.16 0 c-0.14 0 -0.2 0.02 -0.22 0.08 l0 0.06 c0.02 0 0.04 -0.02 0.06 -0.04 l0.06 -0.04 l0.04 0.04 l0.02 0.04 c0 0.04 -0.08 0.04 -0.26 0.08 l-0.14 0.02 l0.04 -0.06 c0 -0.02 -0.04 -0.04 -0.14 -0.06 l-0.1 -0.02 c-0.1 0 -0.16 0.04 -0.16 0.1 c0 0.04 0 0.06 0.02 0.08 l0.02 0.04 c0 0.02 0 0.04 -0.02 0.04 s-0.06 -0.04 -0.1 -0.08 c0 -0.02 -0.02 -0.04 -0.04 -0.04 c-0.04 0 -0.08 0.02 -0.16 0.06 c-0.1 0.06 -0.28 0.14 -0.4 0.16 c-0.1 0.04 -0.16 0.06 -0.16 0.08 l0.06 0.06 c0 0.02 0 0.02 -0.02 0.02 l-0.26 -0.04 c-0.06 0 -0.1 0.02 -0.14 0.08 c-0.04 0.08 -0.1 0.12 -0.14 0.12 l-0.02 -0.02 l0.04 -0.12 l-0.04 -0.02 l-0.08 0.02 c-0.12 0.04 -0.18 0.06 -0.18 0.1 l0.06 0.1 c0 0.02 -0.02 0.04 -0.04 0.04 s-0.06 -0.02 -0.06 -0.06 c-0.02 -0.02 -0.06 -0.04 -0.1 -0.04 c-0.02 0 -0.04 0.02 -0.04 0.04 l0 0.04 c0 0.02 -0.04 0.04 -0.1 0.06 l-0.04 0 c-0.04 0 -0.06 -0.02 -0.06 -0.04 l0.02 -0.02 c0 -0.02 -0.02 -0.02 -0.04 -0.02 c-0.04 0 -0.1 0 -0.2 0.04 l-0.08 0.02 c0 0.02 0.02 0.02 0.06 0.02 l0.08 0.02 l0 0.02 c-0.02 0.02 -0.16 0.04 -0.3 0.04 l-0.22 0 l0.02 0.02 c0.04 0.02 0.06 0.02 0.06 0.04 s-0.04 0.04 -0.14 0.04 l-0.06 0 c-0.1 0 -0.16 0 -0.16 0.02 l0 0.02 c0 0.04 -0.04 0.06 -0.08 0.08 c-0.16 0.08 -1.08 0.28 -1.2 0.28 c-0.04 0 -0.06 0.02 -0.06 0.02 l0 0.02 c0 0.04 0.08 0.06 0.16 0.06 s0.14 -0.02 0.14 -0.04 s0.08 -0.04 0.2 -0.04 c0.14 0 0.2 0.02 0.2 0.04 s-0.1 0.06 -0.3 0.1 c-0.36 0.06 -0.84 0.2 -0.9 0.24 c-0.02 0.02 -0.08 0.04 -0.12 0.04 c-0.08 0 -0.18 0.28 -0.18 0.44 l0 0.1 c0 0.04 -0.02 0.06 -0.04 0.08 c-0.04 0.02 -0.06 0.12 -0.08 0.22 c0 0.1 -0.02 0.24 -0.04 0.3 l-0.02 0.14 l0 0.08 c0 0.04 -0.02 0.08 -0.04 0.1 c-0.04 0.04 -0.04 0.12 -0.04 0.16 l-0.02 0.44 c-0.1 0.5 -0.1 0.54 -0.12 0.8 l0 0.3 c0 0.32 0.02 0.62 0.06 0.78 c0.06 0.22 0.22 0.36 0.46 0.46 c0.14 0.06 0.76 0.1 1.16 0.1 c0.2 0 0.34 -0.02 0.34 -0.04 s0.12 -0.06 0.24 -0.1 l0.2 -0.04 c0.04 0 0.08 0 0.1 0.04 c0.04 0.02 0.04 0.04 0.06 0.04 l-0.02 -0.04 c0 -0.06 0.02 -0.1 0.08 -0.12 l0.04 0 c0.04 0 0.06 0 0.06 0.02 c0.02 0.02 0.06 0.04 0.1 0.04 s0.06 -0.02 0.06 -0.04 c0 -0.06 0.18 -0.14 0.28 -0.14 l0.08 0.02 l0.04 -0.04 c0 -0.02 0.06 -0.06 0.14 -0.06 c0.06 0 0.12 0 0.14 -0.02 c0.02 -0.04 0.08 -0.04 0.14 -0.06 c0.1 0 0.28 -0.06 0.46 -0.18 l0.06 -0.02 c0.04 0 0.08 0.02 0.12 0.04 l0.06 0.02 l0 -0.02 c0 -0.04 0.04 -0.08 0.12 -0.1 s0.16 -0.06 0.2 -0.1 c0.02 -0.02 0.08 -0.04 0.12 -0.04 l0.06 0 c0.1 0 0.16 -0.02 0.18 -0.08 c0.04 -0.06 0.08 -0.1 0.12 -0.1 s0.1 0.04 0.14 0.08 s0.06 0.08 0.08 0.08 l0 -0.08 c0.02 -0.12 0.06 -0.18 0.12 -0.18 c0.04 0 0.08 0.04 0.1 0.12 l0.04 0.08 l0.04 -0.08 c0.04 -0.1 0.1 -0.12 0.26 -0.12 s0.22 -0.04 0.26 -0.12 s0.12 -0.14 0.18 -0.16 s0.26 -0.08 0.42 -0.16 c0.2 -0.08 0.28 -0.12 0.32 -0.12 s0.04 0.02 0.04 0.06 l0 0.02 c0 0.02 0 0.02 -0.02 0.02 l-0.02 0 c-0.04 0 -0.08 0.02 -0.08 0.06 l0 0.04 c0 0.02 0 0.04 0.04 0.04 l0.18 -0.06 l0.12 -0.02 c0.06 0 0.1 0.02 0.16 0.08 c0.1 0.08 0.14 0.1 0.14 0.16 l-0.06 0.14 c-0.02 0.04 -0.02 0.08 -0.02 0.12 s0 0.08 0.02 0.1 l0.02 0.08 l-0.02 0.02 l-0.04 0.02 l0.02 0.04 l0.06 0.02 l0.08 -0.02 c0.02 -0.02 0.06 -0.04 0.1 -0.04 l0.02 0 c0 0.04 -0.06 0.06 -0.14 0.12 c-0.08 0.04 -0.12 0.06 -0.12 0.08 s0 0.02 0.04 0.04 l0.08 0.04 c0 0.02 -0.02 0.04 -0.08 0.08 s-0.14 0.08 -0.18 0.08 s-0.1 0.06 -0.14 0.12 c-0.02 0.04 -0.06 0.06 -0.08 0.06 l-0.02 0 s-0.08 0.04 -0.16 0.12 c-0.08 0.06 -0.16 0.12 -0.18 0.12 c-0.16 0 -0.54 0.12 -0.54 0.16 l0.08 0.04 c0.04 0 0.08 0.06 0.1 0.1 l0.02 0.06 c0 0.02 -0.02 0.04 -0.04 0.04 l-0.36 -0.06 c-0.06 0 -0.12 0.08 -0.12 0.12 l0.02 0.06 c0 0.06 -0.32 0.26 -0.42 0.26 c-0.04 0 -0.16 0.04 -0.24 0.1 s-0.16 0.1 -0.18 0.1 l-0.3 0.04 c-0.2 0.02 -0.28 0.06 -0.34 0.16 c-0.04 0.06 -0.06 0.08 -0.08 0.08 s-0.02 0 -0.04 -0.04 l-0.02 -0.1 l0 -0.04 c0 -0.02 0 -0.04 -0.02 -0.04 l-0.04 0.02 c-0.06 0.02 -0.12 0.02 -0.16 0.02 s-0.12 0.06 -0.18 0.14 l-0.08 0.08 l0 -0.02 c0 -0.06 -0.02 -0.1 -0.08 -0.1 c-0.04 0 -0.06 -0.02 -0.06 -0.04 l0 -0.02 c0 -0.02 -0.02 -0.04 -0.04 -0.04 s-0.02 0 -0.02 0.02 l0.02 0.1 c0 0.1 -0.1 0.24 -0.18 0.24 c-0.02 0 -0.1 0.06 -0.16 0.12 s-0.1 0.08 -0.12 0.08 c-0.04 0 -0.06 -0.04 -0.08 -0.14 s-0.02 -0.16 -0.06 -0.16 l-0.06 0.1 l-0.08 0.1 l-0.12 0 l-0.02 0.02 l0.04 0.08 c0 0.06 -0.12 0.1 -0.26 0.1 l-0.06 0 c-0.1 -0.02 -0.2 -0.06 -0.24 -0.1 l-0.04 -0.02 l0 0.08 c0 0.04 0 0.06 -0.02 0.06 c-0.04 0 -0.06 -0.02 -0.06 -0.04 s-0.04 -0.02 -0.08 -0.02 c-0.08 0 -0.22 0.02 -0.32 0.08 z M8.04 3.039999999999999 l0.04 -0.02 l-0.02 -0.02 l-0.06 0 l0 0.02 z M6.42 3.3599999999999994 l0.04 -0.02 l-0.02 -0.02 c0 -0.02 -0.02 -0.02 -0.04 -0.02 c0 0 -0.02 0 -0.02 0.02 l0 0.02 z M10.54 3.6000000000000014 l0.02 -0.02 l0.02 -0.06 l0 -0.04 c0 -0.04 -0.06 -0.06 -0.1 -0.08 c-0.06 0 -0.12 0.02 -0.16 0.06 l-0.04 0.04 l0.1 0 c0.06 0 0.12 0.04 0.12 0.06 z M5.6 3.5 c0.06 0 0.08 0 0.08 -0.02 l-0.12 -0.06 l-0.02 0.02 c-0.02 0 -0.02 0 -0.02 0.02 s0.04 0.04 0.08 0.04 z M5.2 3.6000000000000014 c0.02 0 0.04 -0.02 0.04 -0.04 c-0.02 -0.04 -0.02 -0.06 -0.04 -0.06 s-0.04 0.02 -0.04 0.06 l0 0.02 z M9.36 3.6000000000000014 l0 -0.02 l-0.04 -0.02 c-0.02 0 -0.04 0 -0.06 0.02 l-0.02 0.02 l0.12 0 z M10.04 3.6799999999999997 l0 -0.02 c0 -0.02 -0.02 -0.04 -0.06 -0.06 c-0.04 0 -0.06 0 -0.1 -0.02 c-0.02 0 -0.04 0 -0.04 0.02 c0 0.04 0.12 0.08 0.18 0.08 l0.02 0 z M10.12 3.8200000000000003 c0.06 0 0.14 -0.02 0.16 -0.06 l0.04 -0.04 c0.02 0 0.04 0 0.04 0.04 l0.02 0.04 l0.02 0 l0 -0.02 c0 -0.04 -0.1 -0.18 -0.18 -0.18 c-0.1 0 -0.18 0.08 -0.18 0.16 l0 0.02 c0 0.02 0.04 0.04 0.08 0.04 z M4.9 3.66 c0.02 0 0.04 0 0.04 -0.02 l-0.02 -0.02 l-0.06 0 l0 0.02 z M8.9 3.6999999999999993 l0.06 -0.02 c0.02 -0.02 0.04 -0.02 0.04 -0.04 l0 -0.02 l-0.02 0 c-0.02 0 -0.04 0 -0.06 0.04 z M10.58 3.8200000000000003 c0.04 0 0.06 -0.02 0.06 -0.02 l0 -0.02 l-0.1 -0.08 l-0.02 -0.02 c-0.02 0 -0.04 0.02 -0.04 0.06 c0 0.06 0.02 0.08 0.1 0.08 z M9.76 3.8599999999999994 c0.02 0 0.06 -0.02 0.06 -0.04 l0 -0.04 l-0.12 0.06 c0 0.02 0.02 0.02 0.06 0.02 z M9.36 3.960000000000001 c0 -0.02 0 -0.06 -0.02 -0.08 l-0.02 0 l-0.02 0.02 l0.04 0.06 l0.02 0 z M8.82 4.02 c0.04 0 0.04 -0.02 0.04 -0.04 c0 -0.04 -0.02 -0.06 -0.04 -0.06 l-0.04 0.06 c0 0.02 0.02 0.04 0.04 0.04 z M9.2 3.960000000000001 l0 -0.02 l-0.04 -0.02 c-0.02 0 -0.04 0 -0.06 0.02 l-0.02 0.02 l0.12 0 z M7.88 4.02 l0 -0.02 c0 -0.02 -0.02 -0.04 -0.06 -0.06 l-0.04 -0.02 l0.02 0.04 c0.02 0.04 0.06 0.06 0.08 0.06 z M9.88 4.119999999999999 c0.08 -0.02 0.14 -0.04 0.14 -0.06 l0.02 -0.04 l0.02 0.04 l0.08 0.04 c0.06 0 0.12 -0.04 0.12 -0.1 l0 -0.02 c-0.02 -0.04 -0.04 -0.04 -0.08 -0.04 l-0.04 0 c-0.1 0.04 -0.16 0.06 -0.38 0.08 c-0.04 0 -0.06 0.02 -0.06 0.04 s0.08 0.06 0.18 0.06 z M7.4 4.08 l0.02 -0.02 l0 -0.02 l-0.04 -0.02 l-0.04 0.02 c0 0.02 0.02 0.04 0.06 0.04 z M8.98 4.26 c0.14 0 0.3 -0.06 0.34 -0.12 c0.02 -0.02 0.02 -0.04 0.02 -0.06 c0 -0.04 -0.02 -0.04 -0.06 -0.04 l-0.04 0 c-0.04 0 -0.08 0 -0.12 0.02 l-0.16 0.04 l-0.04 0 c-0.04 0 -0.08 0.02 -0.1 0.06 l-0.02 0.04 c0 0.02 0.02 0.02 0.08 0.04 z M2.34 4.18 c0.02 0 0.06 -0.02 0.1 -0.06 c0.02 -0.02 0.04 -0.02 0.04 -0.04 l-0.06 0 c-0.04 0 -0.08 0.02 -0.1 0.04 l0 0.02 c0 0.02 0 0.04 0.02 0.04 z M7.38 4.279999999999999 l0 -0.06 c0 -0.02 -0.04 -0.04 -0.06 -0.04 l-0.04 0.02 l0.02 0.02 c0.04 0.04 0.06 0.06 0.08 0.06 z M8.54 4.359999999999999 c0.06 0 0.12 -0.02 0.16 -0.06 l0.02 -0.02 c0 -0.06 -0.16 -0.1 -0.34 -0.1 c-0.1 0 -0.14 0 -0.14 0.02 l0.08 0.08 c0.06 0.04 0.14 0.08 0.22 0.08 z M8.14 4.42 l0.18 -0.02 c0.02 -0.02 0.02 -0.04 0.02 -0.06 s-0.02 -0.04 -0.04 -0.04 l-0.04 0.02 c-0.04 0 -0.08 0 -0.12 -0.04 c-0.02 -0.02 -0.06 -0.06 -0.1 -0.06 l-0.02 0.02 l0.04 0.08 l-0.02 0.02 l-0.04 0.02 l0 0.02 c0 0.02 0.06 0.04 0.14 0.04 z M6.66 4.380000000000001 l0.02 -0.02 l0 -0.02 l-0.08 0 c0 0.02 0.02 0.04 0.06 0.04 z M6.28 4.48 c0.02 0 0.04 -0.02 0.06 -0.04 c0 -0.04 0 -0.06 -0.02 -0.06 s-0.04 0.02 -0.04 0.06 l0 0.04 z M6.14 4.48 l0 -0.02 l-0.04 -0.02 l-0.04 0.02 c0 0.02 0.02 0.02 0.06 0.02 l0.02 0 z M5.76 4.58 l0 -0.02 l-0.04 -0.02 c-0.02 0 -0.04 0 -0.06 0.02 l-0.02 0.02 l0.12 0 z M7.14 4.74 l0 -0.02 c0 -0.02 -0.02 -0.02 -0.04 -0.02 l-0.06 0 l-0.02 0.02 c0 0.02 0.02 0.02 0.06 0.02 l0.06 0 z M5.46 5.1 c0.04 0 0.1 -0.02 0.12 -0.08 c0 -0.06 0.02 -0.12 0.04 -0.14 l0.04 -0.02 l-0.04 -0.02 c-0.08 0 -0.22 0.16 -0.22 0.22 l0 0.02 c0 0.02 0.02 0.02 0.06 0.02 z M7.72 4.960000000000001 c-0.08 0 -0.14 -0.02 -0.14 -0.02 c0 -0.02 0.04 -0.04 0.12 -0.06 l0.08 0 l0.04 0.02 l0 0.02 c0 0.02 -0.04 0.04 -0.1 0.04 z M6.4 5.199999999999999 c-0.06 0 -0.08 -0.02 -0.1 -0.04 c0 -0.04 0.04 -0.04 0.1 -0.04 l0.26 0 c0 0.02 -0.02 0.02 -0.06 0.04 c-0.08 0.02 -0.14 0.04 -0.2 0.04 z M5.58 5.380000000000001 l-0.04 0 c-0.04 0 -0.1 -0.02 -0.12 -0.04 l-0.04 -0.06 c0 -0.02 0.04 -0.04 0.08 -0.04 l0.04 0 l0.1 0.04 l0.04 0.06 c0 0.02 -0.02 0.02 -0.06 0.04 z M1.68 6.4399999999999995 l-0.08 0 l0 -0.02 c0 -0.02 0.02 -0.02 0.04 -0.02 c0 0 0.02 0 0.02 0.02 z M4.38 7.119999999999999 c-0.02 0 -0.04 -0.02 -0.04 -0.04 c0 -0.06 0.08 -0.16 0.12 -0.16 c0.02 0 0.04 0.02 0.04 0.04 l-0.02 0.06 c-0.02 0.06 -0.06 0.1 -0.1 0.1 z M4.08 8.14 l-0.02 -0.1 c0 -0.04 0.02 -0.08 0.06 -0.08 l0.04 0 c0.02 0 0.02 0.02 0.02 0.04 l-0.04 0.08 c-0.02 0.04 -0.04 0.06 -0.06 0.06 z M3.98 8.42 l-0.02 -0.04 l0.02 -0.08 c0.02 -0.04 0.04 -0.08 0.06 -0.08 l0.02 0.06 c0 0.06 -0.04 0.14 -0.08 0.14 z M3.78 8.94 l0 -0.02 c0 -0.1 0.1 -0.4 0.16 -0.4 l0.02 0.02 c0 0.06 -0.04 0.18 -0.12 0.32 c-0.02 0.06 -0.04 0.08 -0.06 0.08 z M3.74 9.16 l-0.02 0 c-0.02 0 -0.04 0 -0.04 -0.02 s0 -0.06 0.02 -0.08 l0.04 -0.02 l0.02 0.04 l0 0.02 z M3.4 10.16 c-0.02 0 -0.04 -0.04 -0.04 -0.1 l0 -0.04 c0 -0.04 0.02 -0.06 0.04 -0.06 s0.04 0.02 0.04 0.06 l0 0.06 c0 0.06 -0.02 0.08 -0.04 0.08 z M2.78 10.44 c0.02 0 0.02 -0.02 0.04 -0.08 l0 -0.24 c-0.02 -0.06 -0.04 -0.1 -0.08 -0.1 c-0.02 0 -0.04 0.02 -0.08 0.1 l-0.02 0.06 c0 0.04 0.02 0.04 0.08 0.04 l0.06 0 l-0.02 0.04 l-0.08 0.04 l-0.06 -0.02 c0 0.02 0.02 0.04 0.06 0.08 c0.06 0.06 0.08 0.08 0.1 0.08 z M9.76 10.26 l-0.02 0 c-0.02 0 -0.02 -0.02 -0.04 -0.04 c0 -0.04 0 -0.04 0.02 -0.04 l0.02 0 c0.02 0.02 0.02 0.06 0.02 0.08 z M2.66 10.78 c0.02 0 0.02 -0.02 0.02 -0.04 c-0.02 -0.04 -0.04 -0.06 -0.08 -0.06 c-0.02 0 -0.02 0 -0.02 0.02 l0.02 0.04 z M3.12 11 c-0.02 0 -0.02 -0.02 -0.02 -0.04 l0 -0.04 c0.02 -0.02 0.02 -0.1 0.02 -0.14 c0.02 -0.06 0.04 -0.1 0.06 -0.1 s0.02 0.04 0.02 0.1 l0 0.06 c-0.02 0.08 -0.06 0.16 -0.08 0.16 z M6.16 10.84 l0.04 -0.02 l-0.02 -0.02 l-0.04 -0.02 l-0.02 0.04 z M10.18 10.88 l-0.02 0 c-0.04 0 -0.06 0 -0.06 -0.02 l0.04 -0.02 l0.04 0.02 l0 0.02 z M9.44 10.98 c0 -0.02 0 -0.06 -0.02 -0.08 l-0.02 0 l-0.02 0.02 l0.04 0.06 l0.02 0 z M9.26 11.04 c0.02 0 0.06 -0.02 0.06 -0.04 l0 -0.04 c0 -0.02 0 -0.02 -0.02 -0.02 c-0.04 0 -0.06 0.02 -0.08 0.06 c0 0.02 0 0.04 0.04 0.04 z M5.74 11 l0.04 -0.02 l-0.02 -0.02 c0 -0.02 -0.02 -0.02 -0.04 -0.02 c0 0 -0.02 0 -0.02 0.02 l0 0.02 z M9.7 11.2 c0.04 0 0.08 -0.02 0.08 -0.06 l0 -0.02 c0 -0.04 -0.04 -0.08 -0.06 -0.08 s-0.04 0.04 -0.08 0.08 l-0.02 0.04 c0 0.04 0.02 0.04 0.08 0.04 z M2.46 11.24 l0.04 -0.02 l0.02 -0.06 l0 -0.02 c0 -0.02 0 -0.02 -0.02 -0.02 l-0.04 0 c-0.02 0.02 -0.02 0.06 -0.02 0.08 z M8.7 11.36 c0.02 0 0.02 0 0.02 -0.02 l-0.06 -0.04 l-0.14 -0.04 c0 0.02 0.02 0.02 0.04 0.04 z M8.22 11.34 l0.06 -0.02 c0.02 -0.02 0.04 -0.02 0.04 -0.04 l0 -0.02 l-0.02 0 c-0.02 0 -0.04 0.02 -0.06 0.04 z M7.82 11.44 l0.08 -0.02 c0.04 -0.02 0.06 -0.04 0.06 -0.08 l-0.04 -0.02 l-0.04 0.04 z M7.64 11.66 l0.26 -0.04 c0.18 -0.06 0.22 -0.08 0.22 -0.12 l0 -0.04 c-0.02 -0.06 -0.02 -0.08 -0.04 -0.08 l-0.06 0.08 c-0.04 0.06 -0.14 0.1 -0.26 0.1 s-0.2 0.02 -0.2 0.06 c0.02 0.02 0.02 0.04 0.08 0.04 z M7.72 11.46 l0.04 -0.02 l0 -0.02 l-0.04 -0.02 l-0.04 0.02 l0 0.02 z M3.36 11.56 l0.04 -0.02 l0 -0.02 l-0.08 0 l0 0.02 z M7.46 11.7 l0.02 -0.04 l-0.04 -0.04 c-0.02 0 -0.02 0.02 -0.02 0.04 c0.02 0.02 0.02 0.04 0.04 0.04 z M6.92 11.76 l0 -0.02 l-0.06 -0.06 l-0.04 0 l0.02 0.02 c0.02 0.04 0.06 0.06 0.08 0.06 z M7.14 11.78 l0.14 -0.04 c0 -0.02 -0.06 -0.02 -0.16 -0.02 c-0.08 0 -0.14 0.02 -0.14 0.04 s0.04 0.02 0.1 0.02 l0.06 0 z M8.84 11.8 l-0.02 0 l-0.04 -0.06 l0.02 -0.02 s0.02 0 0.02 0.02 c0.02 0.02 0.02 0.04 0.02 0.06 z M6.9 11.9 l0 -0.02 l-0.02 -0.04 s0 -0.02 -0.02 -0.02 l0 0.06 l0.02 0.02 l0.02 0 z M8.06 11.96 c-0.02 0 -0.02 0 -0.02 -0.02 l0 -0.02 c0 -0.02 0.06 -0.04 0.12 -0.04 l0.1 0 z M6.36 11.98 l0.04 -0.02 l0 -0.02 c-0.04 -0.02 -0.1 -0.04 -0.14 -0.04 l-0.04 0 l0.02 0.02 c0.02 0.04 0.08 0.06 0.12 0.06 z M5.78 12.120000000000001 c0.04 0 0.06 -0.02 0.06 -0.04 c-0.02 -0.04 -0.08 -0.06 -0.12 -0.06 s-0.08 0.02 -0.08 0.04 l0.02 0.02 c0.02 0.02 0.08 0.04 0.12 0.04 z M6.4 12.18 l0.04 -0.06 l0 -0.04 c-0.02 0 -0.04 0.02 -0.06 0.04 c0 0.04 0 0.06 0.02 0.06 z M5.52 12.24 c0.02 0 0.04 -0.04 0.04 -0.06 c-0.02 -0.02 -0.04 -0.06 -0.08 -0.06 c-0.02 0 -0.04 0.04 -0.04 0.06 c0.02 0.02 0.04 0.06 0.08 0.06 z M5.04 12.280000000000001 c0.06 0 0.12 -0.02 0.14 -0.04 c0 -0.04 -0.02 -0.06 -0.06 -0.06 s-0.08 0.02 -0.12 0.06 l-0.04 0.04 l0.08 0 z M5.38 12.219999999999999 l0 -0.02 l-0.04 -0.02 c-0.02 0 -0.04 0 -0.06 0.02 l-0.02 0.02 l0.12 0 z M6.14 12.280000000000001 c0.06 0 0.08 0 0.08 -0.02 l-0.02 -0.02 l-0.12 0 l-0.02 0.02 z M6.7 12.4 l-0.04 0 c-0.04 0 -0.06 0 -0.08 -0.02 c0 -0.02 0.04 -0.04 0.1 -0.04 s0.1 0 0.1 0.02 z M4.98 12.379999999999999 l-0.02 -0.02 l-0.04 -0.02 s-0.02 0 -0.02 0.02 l0 0.02 l0.08 0 z M6.14 12.54 c-0.04 0 -0.08 -0.02 -0.1 -0.04 c0 -0.04 0.02 -0.06 0.04 -0.06 s0.08 0.02 0.1 0.06 l0 0.02 z M6.44 12.6 l-0.04 -0.02 l0.02 -0.04 l0.04 0.02 l0.02 0.02 z M4.8 12.6 c0.04 0 0.06 -0.02 0.06 -0.02 l0 -0.02 l-0.04 -0.02 l-0.08 0.04 z M4.36 13.2 l-0.04 0 c-0.02 0 -0.04 -0.02 -0.04 -0.04 s0.04 -0.04 0.1 -0.04 s0.1 -0.02 0.1 -0.04 l-0.02 -0.04 c0 -0.04 0.08 -0.06 0.18 -0.06 l0.18 0.02 c0.04 0 0.06 -0.02 0.06 -0.04 c0.02 -0.04 0.02 -0.04 0.04 -0.04 l0.02 0.02 c0 0.02 0.02 0.04 0.04 0.04 l0.08 -0.02 c0.04 0 0.08 0 0.08 0.02 s-0.18 0.06 -0.36 0.1 s-0.38 0.1 -0.42 0.12 z M3.86 13.32 c-0.04 0 -0.08 -0.02 -0.1 -0.06 l-0.02 -0.02 c0 -0.02 0.02 -0.02 0.06 -0.02 s0.08 0.02 0.08 0.04 l0 0.02 c0 0.02 0 0.04 -0.02 0.04 z M2.6 13.58 c0.06 0 0.1 -0.04 0.14 -0.08 l0.04 -0.08 c0 -0.02 0 -0.02 -0.02 -0.02 l-0.04 0 l-0.26 0.04 l-0.1 0.04 l0.08 0.04 z M2.26 13.58 l0.04 -0.02 l0 -0.02 l-0.04 -0.02 l-0.04 0.02 c0 0.02 0.02 0.04 0.04 0.04 z M1.76 13.879999999999999 l0 -0.02 c0 -0.02 -0.02 -0.02 -0.04 -0.02 l-0.08 0.02 c0 0.02 0.02 0.02 0.06 0.02 l0.06 0 z M1.74 13.98 l0 -0.02 l-0.04 -0.02 l-0.04 0.02 c0 0.02 0.02 0.02 0.06 0.02 l0.02 0 z M1.54 14.48 l0.02 -0.06 l0 -0.02 l-0.02 -0.04 l-0.04 0.02 c-0.02 0.02 -0.02 0.06 -0.02 0.08 s0.02 0.02 0.04 0.02 l0.02 0 z M2.14 14.5 c-0.02 0 -0.04 -0.02 -0.04 -0.04 c0 -0.04 0 -0.06 0.04 -0.06 c0.02 0 0.04 0.02 0.04 0.06 z M2.1 14.82 c-0.04 0 -0.06 -0.02 -0.08 -0.06 l0.04 -0.08 l0.02 0 c0.02 0 0.04 0.02 0.04 0.06 l0 0.04 c0 0.02 0 0.04 -0.02 0.04 z M1.86 16.2 c-0.04 0 -0.06 -0.04 -0.06 -0.1 c0 -0.08 0.02 -0.16 0.04 -0.2 c0 -0.04 0 -0.06 0.02 -0.06 l0.02 0.06 l0.02 0.16 c0 0.08 -0.02 0.14 -0.04 0.14 z M1.74 16.66 l-0.02 0 l0 -0.04 c0 -0.1 0.04 -0.36 0.08 -0.36 s0.04 0.04 0.04 0.12 c0 0.06 0 0.14 -0.04 0.2 z M9.5 17.240000000000002 c-0.04 0 -0.08 -0.02 -0.08 -0.04 l0 -0.02 c0 -0.02 0.06 -0.04 0.12 -0.04 s0.1 0 0.1 0.02 l-0.02 0.04 c-0.04 0.02 -0.08 0.04 -0.12 0.04 z M8.2 18.06 c0.02 0 0.04 -0.02 0.06 -0.04 l0.08 -0.02 l0.06 0 c0.1 0 0.32 -0.08 0.32 -0.14 l0 -0.02 l0.02 -0.02 l0.02 0.02 l0.04 0 c0.04 0 0.1 -0.02 0.12 -0.04 c0.06 -0.04 0.16 -0.1 0.24 -0.1 c0.1 -0.02 0.12 -0.04 0.12 -0.1 l0 -0.06 c-0.02 -0.08 -0.04 -0.1 -0.08 -0.1 l-0.04 0 c-0.04 0 -0.1 0 -0.12 -0.04 l-0.02 -0.04 c0 -0.02 0.06 -0.04 0.2 -0.1 l0.04 -0.04 l-0.02 -0.02 l-0.06 0 c-0.08 0 -0.24 0.12 -0.26 0.24 c-0.02 0.06 -0.04 0.1 -0.08 0.1 l-0.06 0 l-0.1 0.02 l-0.02 0.04 l0.06 0 c0.06 0 0.08 0.02 0.08 0.04 c0 0.04 -0.04 0.1 -0.14 0.14 s-0.18 0.1 -0.18 0.12 c-0.02 0.04 -0.08 0.06 -0.14 0.06 l-0.04 0 c-0.06 0 -0.1 0.02 -0.1 0.06 l0 0.04 z M8.92 17.66 c-0.04 0 -0.04 0 -0.04 -0.02 l0.02 -0.06 c0.02 -0.04 0.08 -0.08 0.12 -0.08 c0.06 0 0.12 0.02 0.14 0.04 l0 0.02 c0 0.06 -0.12 0.1 -0.24 0.1 z M9 17.6 l0.04 -0.02 l0 -0.02 l-0.08 0 c0 0.02 0.02 0.04 0.04 0.04 z M1.82 17.86 c-0.02 0 -0.04 -0.04 -0.04 -0.1 l-0.02 -0.08 l0.02 -0.02 c0.04 0 0.06 0.04 0.06 0.1 s-0.02 0.1 -0.02 0.1 z M8.16 17.84 c0.02 0 0.02 -0.02 0.02 -0.06 l0 -0.12 l-0.04 0 l-0.06 0.02 c-0.02 0.02 -0.04 0.04 -0.04 0.06 l0.04 0.06 z M4.72 18.06 c0.02 0 0.02 -0.02 0.04 -0.04 l0 -0.06 c-0.02 0 -0.04 0.02 -0.06 0.06 c0 0.02 0 0.04 0.02 0.04 z M8.96 18.36 c-0.02 0 -0.04 0 -0.04 -0.02 l0.02 -0.1 l-0.04 -0.14 c0 -0.02 0.02 -0.04 0.08 -0.04 s0.1 0.04 0.1 0.06 l-0.06 0.02 l-0.04 0 c-0.02 0 -0.02 0 -0.02 0.02 l0 0.02 c0 0.02 0.02 0.04 0.06 0.04 l0.24 -0.04 l-0.06 0.06 c-0.08 0.08 -0.18 0.12 -0.24 0.12 z M7.96 18.22 c0.02 0 0.04 -0.02 0.04 -0.04 l0 -0.02 c0 -0.04 -0.02 -0.04 -0.04 -0.06 c-0.02 0 -0.02 -0.02 -0.02 -0.02 c-0.02 0 -0.02 0 -0.02 0.02 l0 0.04 c0.02 0.06 0.02 0.08 0.04 0.08 z M7.78 18.18 l0.02 -0.02 l0 -0.02 l-0.04 -0.02 l-0.04 0.02 c0 0.02 0.02 0.04 0.06 0.04 z M6.88 18.36 l0 -0.02 l-0.02 -0.04 c0 -0.02 -0.02 -0.02 -0.02 -0.02 l-0.02 0.02 l0.04 0.06 l0.02 0 z M6.54 18.44 c0.04 0 0.06 -0.04 0.08 -0.06 c0 -0.02 -0.02 -0.06 -0.04 -0.06 s-0.06 0.04 -0.06 0.06 l0 0.02 c0 0.02 0 0.04 0.02 0.04 z M8.46 18.54 c-0.04 0 -0.08 -0.04 -0.1 -0.08 l0 -0.02 c0 -0.04 0.08 -0.08 0.18 -0.08 c0.04 0 0.1 0.02 0.12 0.04 l0.04 0.02 l0.02 -0.04 l0.08 -0.06 c0.02 0 0.04 0.02 0.06 0.06 c0 0.04 -0.3 0.16 -0.4 0.16 z M6.94 18.48 l0.08 -0.02 l-0.02 0 c0 -0.02 -0.02 -0.02 -0.04 -0.02 l-0.06 0 l-0.02 0.02 c0 0.02 0.02 0.02 0.06 0.02 z M6.16 18.54 l0.04 -0.02 l0 -0.02 l-0.04 -0.02 l-0.04 0.02 l0 0.02 z M7.66 18.6 c0.06 -0.02 0.1 -0.04 0.1 -0.06 s-0.02 -0.02 -0.04 -0.02 l-0.08 0 c-0.08 0.02 -0.12 0.04 -0.12 0.06 s0.04 0.02 0.08 0.02 l0.06 0 z M5.94 18.8 c0.08 0 0.16 -0.02 0.22 -0.06 l0.04 -0.04 l0.04 0.04 l0.02 0.04 c0.02 0 0.02 -0.02 0.02 -0.06 l0 -0.02 c0 -0.04 -0.04 -0.06 -0.08 -0.06 c-0.06 0 -0.1 0.02 -0.12 0.04 c0 0.04 -0.06 0.06 -0.12 0.06 l-0.08 0.02 l0 0.02 c0 0.02 0.04 0.02 0.06 0.02 z M7.48 18.68 l0 -0.02 l-0.04 -0.02 l-0.04 0.02 c0 0.02 0.02 0.02 0.04 0.02 l0.04 0 z M7.04 18.94 c0.1 0 0.38 -0.06 0.42 -0.1 l0 -0.02 s-0.02 -0.02 -0.06 -0.02 s-0.06 -0.02 -0.06 -0.04 l0 -0.02 c0 -0.02 -0.06 -0.06 -0.16 -0.06 s-0.2 0.04 -0.2 0.06 l0 0.02 c0 0.02 0.02 0.02 0.06 0.02 l0.2 -0.02 l-0.1 0.06 c-0.08 0.04 -0.14 0.08 -0.14 0.1 z M6.74 18.94 l0.04 -0.02 l0 -0.02 c0 -0.04 -0.04 -0.06 -0.1 -0.06 c-0.02 0 -0.04 0 -0.04 0.02 l0.02 0.04 z M6.54 19.06 c0.02 0 0.02 -0.04 0.02 -0.08 l0 -0.02 c0 -0.04 -0.02 -0.06 -0.06 -0.06 c-0.02 0 -0.04 0 -0.04 0.02 l0.02 0.06 z M6.4 19.04 c0 -0.02 0 -0.06 -0.02 -0.08 l-0.02 0 c-0.02 0 -0.02 0.02 -0.02 0.04 c0.02 0.02 0.02 0.04 0.04 0.04 l0.02 0 z M6.26 19.06 l0.04 -0.02 l-0.02 -0.02 c0 -0.02 -0.02 -0.02 -0.04 -0.02 c0 0 -0.02 0 -0.02 0.02 l0 0.02 z M6 19.08 c0 -0.02 0 -0.04 -0.02 -0.06 c-0.02 0 -0.02 -0.02 -0.02 -0.02 c-0.02 0 -0.02 0.02 -0.02 0.06 l0.04 0.02 l0.02 0 z M6.72 19.1 c0.04 0 0.06 -0.02 0.06 -0.04 l-0.04 -0.04 l-0.04 0.02 c-0.04 0 -0.08 0.04 -0.08 0.04 c0.02 0.02 0.04 0.02 0.1 0.02 z M4.68 19.1 l0.02 -0.02 l0 -0.02 l-0.08 0 c0 0.02 0.02 0.04 0.06 0.04 z M5.68 19.3 c0.02 0 0.04 -0.02 0.04 -0.04 l0 -0.02 c0 -0.02 -0.02 -0.04 -0.04 -0.04 s-0.04 0.02 -0.04 0.06 c0.02 0.02 0.02 0.04 0.04 0.04 z M5.26 19.46 c0.06 0 0.08 0 0.08 -0.02 l-0.08 -0.06 c-0.04 -0.04 -0.1 -0.06 -0.14 -0.06 c0 0 -0.02 0 -0.02 0.02 l-0.02 0.04 c0 0.04 0.08 0.08 0.18 0.08 z M3.46 19.52 c0.02 0 0.04 -0.02 0.04 -0.06 l0 -0.02 s-0.02 -0.02 -0.06 -0.02 l-0.04 0.02 l0 0.02 c0.02 0.04 0.06 0.06 0.06 0.06 z M3.74 19.46 l0.04 -0.02 l-0.02 0 c0 -0.02 -0.02 -0.02 -0.04 -0.02 c0 0 -0.02 0 -0.02 0.02 z M4.42 19.52 c0.02 0 0.04 0 0.04 -0.02 l-0.04 -0.04 l-0.04 0.02 l0 0.02 z M5.1 19.56 l-0.02 -0.02 c0 -0.02 -0.02 -0.02 -0.04 -0.02 c0 0 -0.02 0 -0.02 0.02 l0 0.02 l0.08 0 z M5.58 19.62 c-0.02 0 -0.04 -0.02 -0.04 -0.04 l0.08 0 l0 0.02 z M4.4 19.72 c0.08 0 0.14 -0.02 0.14 -0.06 l0 -0.04 l-0.1 0.02 l-0.1 -0.02 l-0.04 -0.02 l-0.02 0.04 c0 0.06 0.04 0.08 0.12 0.08 z M4.02 19.72 l0.06 -0.02 c0.02 -0.02 0.04 -0.04 0.04 -0.06 l0 -0.02 l-0.02 0 c-0.02 0 -0.04 0.02 -0.06 0.04 z M4.54 19.86 l-0.02 -0.02 l-0.12 0 l-0.02 0.02 l0.16 0 z"/></g><g id="SvgjsG13239" featureKey="duLK5n-0" transform="matrix(0.44825837537375185,0,0,0.44825837537375185,72.273821803813,50.032530033817366)" fill="#000"><path d="M6.22 6.619999999999999 c1.72 0 2.92 0.38 3.68 1.2 c0.6 0.66 0.88 1.6 0.88 2.94 l0 5.26 c0 1.38 -0.28 2.34 -0.88 2.98 c-0.78 0.8 -1.96 1.2 -3.68 1.2 c-1.78 0 -2.94 -0.4 -3.7 -1.2 c-0.58 -0.64 -0.9 -1.6 -0.9 -2.98 l0 -5.26 c0 -1.34 0.32 -2.28 0.9 -2.96 c0.78 -0.8 1.96 -1.18 3.7 -1.18 z M8.12 15.42 l0 -4 c0 -1.76 -0.94 -2.12 -1.8 -2.12 l-0.24 0 c-1.28 0 -1.78 0.82 -1.78 2.12 l0 4 c0 1.76 0.94 2.14 1.78 2.14 l0.24 0 c1.28 0 1.78 -0.86 1.8 -2.14 z M2.88 10.9 l0 4.96 c0 0.94 0.24 1.72 0.8 2.3 c0.52 0.52 1.32 0.8 2.3 0.8 l0.52 0 c1.88 0 3.1 -1.2 3.1 -3.1 l0 -4.96 c0 -2.04 -1.08 -3.14 -3.1 -3.14 l-0.52 0 c-2.04 0 -3.1 1.1 -3.1 3.14 z M6.5 18.7 l-0.52 0 c-0.94 0 -1.64 -0.24 -2.14 -0.74 s-0.76 -1.2 -0.76 -2.1 l0 -4.96 c0 -1.9 1.02 -2.9 2.9 -2.9 l0.52 0 c1.9 0 2.84 0.98 2.84 2.9 l0 4.96 c0 0.84 -0.26 1.6 -0.8 2.12 c-0.52 0.44 -1.22 0.72 -2.04 0.72 z M33.764 14.780000000000001 c-0.28 0.58 -0.68 1.02 -1.24 1.28 l1.68 3.7 c0.06 0.12 -0.02 0.24 -0.14 0.24 l-2.46 0 c-0.08 0 -0.12 -0.04 -0.14 -0.1 l-1.56 -3.4 l-1.02 0 l0 3.32 c0 0.1 -0.08 0.18 -0.18 0.18 l-2.3 0 c-0.08 0 -0.14 -0.08 -0.14 -0.18 l0 -12.84 c0 -0.1 0.06 -0.18 0.14 -0.18 l4.16 0 c2.22 0 3.56 1.26 3.56 3.6 l0 2.52 c0 0.7 -0.12 1.36 -0.36 1.86 z M31.504 12.3 l0 -1.3 c0 -1.4 -0.52 -1.54 -2.04 -1.54 l-0.58 0 l0 4.42 l0.58 0 c1.26 0 2 -0.02 2.04 -1.58 z M27.724 18.78 l0 -3.42 l2.88 0 l1.68 3.46 c0.04 0.1 0.28 0.06 0.22 -0.12 l-1.68 -3.4 c1.56 -0.22 2.1 -1.04 2.1 -2.52 l0 -2.5 c0 -2.2 -2 -2.38 -2.62 -2.38 l-2.7 0 c-0.04 0 -0.12 0.06 -0.12 0.12 l0 10.76 c0 0.14 0.24 0.14 0.24 0 z M32.684 10.28 l0 2.5 c0 2.04 -1.3 2.32 -2.56 2.32 l-2.4 0 l0 -6.94 l2.58 0 c2.16 0 2.38 1.46 2.38 2.12 z M54.808 6.800000000000001 c1.36 0 2.38 0.38 3.06 1.12 c0.6 0.66 0.9 1.64 0.9 2.84 l0 5.3 c0 2.42 -1.4 3.94 -3.96 3.94 l-5 0 c-0.1 0 -0.16 -0.08 -0.16 -0.18 l0 -12.84 c0 -0.1 0.06 -0.18 0.16 -0.18 l5 0 z M56.148 15.46 l0 -4.1 c0 -1.26 -0.66 -2.06 -2.06 -2.06 l-1.8 0 l0 8.2 l1.8 0 c1.2 0 2.06 -0.78 2.06 -2.04 z M50.868 8.02 l0 10.76 c0 0.08 0.08 0.1 0.12 0.1 l3.26 0 c2.3 0 3.34 -1.38 3.34 -2.66 l0 -5.12 c0 -2.12 -1.12 -3.2 -3.4 -3.2 l-3.2 0 c-0.04 0 -0.12 0.02 -0.12 0.12 z M57.348 11.1 l0 5.12 c0 1.6 -1.6 2.44 -3.1 2.44 l-3.14 0 l0 -10.5 l3.08 0 c2.1 0 3.16 0.94 3.16 2.94 z M74.412 20 c-0.1 0 -0.16 -0.08 -0.16 -0.18 l0 -12.84 c0 -0.1 0.06 -0.18 0.16 -0.18 l6.8 0 c0.1 0 0.18 0.08 0.18 0.18 l0 2.14 c0 0.1 -0.08 0.18 -0.18 0.18 l-4.32 0 l0 2.72 l3.36 0 c0.1 0 0.16 0.08 0.16 0.18 l0 2.18 c0 0.1 -0.06 0.18 -0.16 0.18 l-3.36 0 l0 2.94 l4.32 0 c0.1 0 0.18 0.08 0.18 0.18 l0 2.14 c0 0.1 -0.08 0.18 -0.18 0.18 l-6.8 0 z M75.412 8.06 l0 10.64 c0 0.12 0.08 0.16 0.16 0.16 l4.6 0 c0.18 0 0.14 -0.24 0 -0.24 l-4.5 0 l0 -5.22 l3.68 0 c0.12 0 0.12 -0.28 0 -0.28 l-3.68 0 l0 -4.96 l4.5 0 c0.14 0 0.18 -0.26 0 -0.26 l-4.6 0 c-0.08 0 -0.16 0.06 -0.16 0.16 z M104.256 14.780000000000001 c-0.28 0.58 -0.68 1.02 -1.24 1.28 l1.68 3.7 c0.06 0.12 -0.02 0.24 -0.14 0.24 l-2.46 0 c-0.08 0 -0.12 -0.04 -0.14 -0.1 l-1.56 -3.4 l-1.02 0 l0 3.32 c0 0.1 -0.08 0.18 -0.18 0.18 l-2.3 0 c-0.08 0 -0.14 -0.08 -0.14 -0.18 l0 -12.84 c0 -0.1 0.06 -0.18 0.14 -0.18 l4.16 0 c2.22 0 3.56 1.26 3.56 3.6 l0 2.52 c0 0.7 -0.12 1.36 -0.36 1.86 z M101.99600000000001 12.3 l0 -1.3 c0 -1.4 -0.52 -1.54 -2.04 -1.54 l-0.58 0 l0 4.42 l0.58 0 c1.26 0 2 -0.02 2.04 -1.58 z M98.21600000000001 18.78 l0 -3.42 l2.88 0 l1.68 3.46 c0.04 0.1 0.28 0.06 0.22 -0.12 l-1.68 -3.4 c1.56 -0.22 2.1 -1.04 2.1 -2.52 l0 -2.5 c0 -2.2 -2 -2.38 -2.62 -2.38 l-2.7 0 c-0.04 0 -0.12 0.06 -0.12 0.12 l0 10.76 c0 0.14 0.24 0.14 0.24 0 z M103.176 10.28 l0 2.5 c0 2.04 -1.3 2.32 -2.56 2.32 l-2.4 0 l0 -6.94 l2.58 0 c2.16 0 2.38 1.46 2.38 2.12 z M143.94400000000002 6.619999999999999 c1.72 0 2.92 0.38 3.68 1.2 c0.6 0.66 0.88 1.6 0.88 2.94 l0 5.26 c0 1.38 -0.28 2.34 -0.88 2.98 c-0.78 0.8 -1.96 1.2 -3.68 1.2 c-1.78 0 -2.94 -0.4 -3.7 -1.2 c-0.58 -0.64 -0.9 -1.6 -0.9 -2.98 l0 -5.26 c0 -1.34 0.32 -2.28 0.9 -2.96 c0.78 -0.8 1.96 -1.18 3.7 -1.18 z M145.84400000000002 15.42 l0 -4 c0 -1.76 -0.94 -2.12 -1.8 -2.12 l-0.24 0 c-1.28 0 -1.78 0.82 -1.78 2.12 l0 4 c0 1.76 0.94 2.14 1.78 2.14 l0.24 0 c1.28 0 1.78 -0.86 1.8 -2.14 z M140.604 10.9 l0 4.96 c0 0.94 0.24 1.72 0.8 2.3 c0.52 0.52 1.32 0.8 2.3 0.8 l0.52 0 c1.88 0 3.1 -1.2 3.1 -3.1 l0 -4.96 c0 -2.04 -1.08 -3.14 -3.1 -3.14 l-0.52 0 c-2.04 0 -3.1 1.1 -3.1 3.14 z M144.22400000000002 18.7 l-0.52 0 c-0.94 0 -1.64 -0.24 -2.14 -0.74 s-0.76 -1.2 -0.76 -2.1 l0 -4.96 c0 -1.9 1.02 -2.9 2.9 -2.9 l0.52 0 c1.9 0 2.84 0.98 2.84 2.9 l0 4.96 c0 0.84 -0.26 1.6 -0.8 2.12 c-0.52 0.44 -1.22 0.72 -2.04 0.72 z M169.448 6.98 c0 -0.1 0.08 -0.18 0.18 -0.18 l2.3 0 c0.1 0 0.18 0.08 0.18 0.18 l0 12.84 c0 0.1 -0.08 0.18 -0.18 0.18 l-2.22 0 c-0.08 0 -0.16 -0.04 -0.18 -0.1 l-2.92 -6.58 l0 6.5 c0 0.1 -0.08 0.18 -0.18 0.18 l-2.28 0 c-0.1 0 -0.16 -0.08 -0.16 -0.18 l0 -12.84 c0 -0.1 0.06 -0.18 0.16 -0.18 l2.36 0 c0.08 0 0.12 0.06 0.14 0.1 l2.8 6.46 l0 -6.38 z M170.888 18.8 l0 -10.8 c0 -0.14 -0.26 -0.18 -0.26 0 l0 10.28 l-5.22 -10.32 c-0.06 -0.08 -0.22 -0.08 -0.22 0.04 l0 10.78 c0 0.18 0.24 0.18 0.24 0 l0 -10.26 l5.2 10.3 c0.08 0.14 0.26 0.1 0.26 -0.02 z M190.292 6.800000000000001 c0.1 0 0.18 0.08 0.18 0.18 l0 10.5 l4.32 0 c0.1 0 0.18 0.08 0.18 0.18 l0 2.16 c0 0.1 -0.08 0.18 -0.18 0.18 l-6.78 0 c-0.1 0 -0.16 -0.08 -0.16 -0.18 l0 -12.84 c0 -0.1 0.06 -0.18 0.16 -0.18 l2.28 0 z M189.05200000000002 8.02 l0 10.76 c0 0.04 0.04 0.1 0.12 0.1 l4.62 0 c0.16 0 0.16 -0.26 0 -0.26 l-4.52 0 l0 -10.6 c0 -0.14 -0.22 -0.16 -0.22 0 z M209.916 20 c-0.1 0 -0.16 -0.08 -0.16 -0.18 l0 -12.84 c0 -0.1 0.06 -0.18 0.16 -0.18 l2.28 0 c0.1 0 0.18 0.08 0.18 0.18 l0 12.84 c0 0.1 -0.08 0.18 -0.18 0.18 l-2.28 0 z M210.95600000000002 8 l0 10.78 c0 0.18 0.22 0.18 0.22 0 l0 -10.78 c0 -0.14 -0.22 -0.14 -0.22 0 z M233.5 6.98 c0 -0.1 0.08 -0.18 0.18 -0.18 l2.3 0 c0.1 0 0.18 0.08 0.18 0.18 l0 12.84 c0 0.1 -0.08 0.18 -0.18 0.18 l-2.22 0 c-0.08 0 -0.16 -0.04 -0.18 -0.1 l-2.92 -6.58 l0 6.5 c0 0.1 -0.08 0.18 -0.18 0.18 l-2.28 0 c-0.1 0 -0.16 -0.08 -0.16 -0.18 l0 -12.84 c0 -0.1 0.06 -0.18 0.16 -0.18 l2.36 0 c0.08 0 0.12 0.06 0.14 0.1 l2.8 6.46 l0 -6.38 z M234.94 18.8 l0 -10.8 c0 -0.14 -0.26 -0.18 -0.26 0 l0 10.28 l-5.22 -10.32 c-0.06 -0.08 -0.22 -0.08 -0.22 0.04 l0 10.78 c0 0.18 0.24 0.18 0.24 0 l0 -10.26 l5.2 10.3 c0.08 0.14 0.26 0.1 0.26 -0.02 z M252.064 20 c-0.1 0 -0.16 -0.08 -0.16 -0.18 l0 -12.84 c0 -0.1 0.06 -0.18 0.16 -0.18 l6.8 0 c0.1 0 0.18 0.08 0.18 0.18 l0 2.14 c0 0.1 -0.08 0.18 -0.18 0.18 l-4.32 0 l0 2.72 l3.36 0 c0.1 0 0.16 0.08 0.16 0.18 l0 2.18 c0 0.1 -0.06 0.18 -0.16 0.18 l-3.36 0 l0 2.94 l4.32 0 c0.1 0 0.18 0.08 0.18 0.18 l0 2.14 c0 0.1 -0.08 0.18 -0.18 0.18 l-6.8 0 z M253.064 8.06 l0 10.64 c0 0.12 0.08 0.16 0.16 0.16 l4.6 0 c0.18 0 0.14 -0.24 0 -0.24 l-4.5 0 l0 -5.22 l3.68 0 c0.12 0 0.12 -0.28 0 -0.28 l-3.68 0 l0 -4.96 l4.5 0 c0.14 0 0.18 -0.26 0 -0.26 l-4.6 0 c-0.08 0 -0.16 0.06 -0.16 0.16 z M275.32800000000003 16.66 c0.94 0 1.78 0.72 1.78 1.7 c0 0.16 -0.06 0.36 -0.1 0.5 l-1.14 2.96 c-0.02 0.08 -0.1 0.14 -0.16 0.14 l-1.36 0 c-0.18 0 -0.22 -0.14 -0.18 -0.26 l0.64 -1.6 c-0.68 -0.22 -1.28 -0.9 -1.28 -1.7 c0 -0.98 0.82 -1.74 1.8 -1.74 z M275.308 21.08 l0.56 -2.02 c0.14 -0.38 0.1 -0.68 -0.02 -0.86 c-0.08 -0.1 -0.2 -0.22 -0.48 -0.24 c-0.34 0 -0.56 0.24 -0.56 0.52 c0 0.32 0.22 0.54 0.52 0.54 c0.12 0 0.28 -0.04 0.38 -0.2 c0 0.06 0 0.08 -0.04 0.16 l-0.62 2.02 c-0.04 0.16 0.2 0.26 0.26 0.08 z M275.348 18.2 c0.16 0 0.28 0.16 0.28 0.28 c0 0.18 -0.16 0.32 -0.3 0.32 c-0.16 0 -0.3 -0.14 -0.3 -0.32 c0 -0.12 0.14 -0.28 0.32 -0.28 z M315.856 11.9 c1.52 0.72 3.5 1.86 3.5 3.92 c0 0.6 -0.1 1.76 -0.76 2.74 c-0.74 1.1 -1.9 1.64 -3.5 1.64 c-1.7 0 -3.68 -0.82 -4.3 -2.68 c-0.02 -0.06 0 -0.12 0.06 -0.16 l1.84 -1.58 c0.08 -0.06 0.2 -0.06 0.26 0.04 c0.04 0.1 0.12 0.26 0.22 0.46 c0.3 0.62 1.02 1.24 1.82 1.24 c0.62 0 1.46 -0.34 1.46 -1.3 c0 -0.92 -1.26 -1.44 -2.04 -1.74 c-0.9 -0.36 -1.82 -0.82 -2.6 -1.5 c-0.82 -0.76 -1.22 -1.6 -1.22 -2.6 c0 -2.5 2.3 -3.76 4.48 -3.76 c1.72 0 3 0.9 3.84 2.68 c0.04 0.08 0 0.18 -0.06 0.22 l-1.78 1.24 c-0.08 0.04 -0.12 0.04 -0.2 -0.06 c-0.68 -0.98 -1.28 -1.44 -2.08 -1.44 c-0.42 0 -1.4 0.16 -1.4 0.9 c0 0.9 1.66 1.36 2.46 1.74 z M312.216 17.42 c0.5 1 1.88 1.58 3 1.58 c1.46 0 2.64 -1 2.8 -2.52 c0.2 -1.86 -1.26 -2.66 -2.7 -3.38 l-0.64 -0.28 c-1.48 -0.66 -2.56 -1.16 -2.56 -2.54 c0 -1.52 1.4 -2.22 2.78 -2.22 c1.26 0 1.92 0.74 2.26 1.2 c0.12 0.16 0.32 0.02 0.2 -0.14 c-0.34 -0.42 -1.06 -1.3 -2.46 -1.3 c-1.58 0 -3.02 0.78 -3.02 2.46 c0 1.5 1.2 2.08 2.72 2.78 l0.62 0.3 c1.98 0.94 2.7 1.82 2.54 3.1 c-0.3 2.04 -1.86 2.3 -2.54 2.3 c-1.5 0 -2.5 -0.9 -2.8 -1.46 c-0.1 -0.1 -0.24 0 -0.2 0.12 z M336.84 6.92 c0.02 -0.06 0.06 -0.12 0.14 -0.12 l2.48 0 c0.08 0 0.12 0.06 0.14 0.12 l3.46 12.86 c0.02 0.12 -0.06 0.22 -0.18 0.22 l-2.28 0 c-0.06 0 -0.12 -0.04 -0.14 -0.12 l-0.78 -2.8 l-2.92 0 l-0.76 2.8 c-0.02 0.08 -0.06 0.12 -0.14 0.12 l-2.3 0 c-0.12 0 -0.2 -0.1 -0.18 -0.22 z M337.4 14.6 l1.66 0 l-0.86 -3.02 z M340.47999999999996 15.780000000000001 l0.92 3 c0.04 0.12 0.26 0.1 0.2 -0.06 l-3.2 -10.64 c-0.06 -0.26 -0.4 -0.28 -0.46 0 l-3.1 10.64 c-0.06 0.14 0.16 0.2 0.22 0.08 l0.88 -3.02 l4.54 0 z M336 15.52 l2.18 -7.36 l2.22 7.36 l-4.4 0 z M359.544 6.92 l2.2 8.28 l2.26 -8.28 c0.04 -0.06 0.08 -0.12 0.16 -0.12 l2.28 0 c0.12 0 0.2 0.1 0.16 0.22 l-3.46 12.86 c-0.04 0.08 -0.08 0.12 -0.16 0.12 l-2.48 0 c-0.06 0 -0.12 -0.04 -0.14 -0.12 l-3.46 -12.86 c-0.02 -0.12 0.06 -0.22 0.18 -0.22 l2.3 0 c0.08 0 0.12 0.06 0.16 0.12 z M361.704 18.62 l-3.34 -10.66 c-0.06 -0.16 -0.28 -0.06 -0.22 0.06 l3.32 10.68 c0.08 0.3 0.4 0.32 0.5 0 l3.2 -10.68 c0.04 -0.12 -0.18 -0.2 -0.22 -0.06 z M381.528 20 c-0.1 0 -0.16 -0.08 -0.16 -0.18 l0 -12.84 c0 -0.1 0.06 -0.18 0.16 -0.18 l6.8 0 c0.1 0 0.18 0.08 0.18 0.18 l0 2.14 c0 0.1 -0.08 0.18 -0.18 0.18 l-4.32 0 l0 2.72 l3.36 0 c0.1 0 0.16 0.08 0.16 0.18 l0 2.18 c0 0.1 -0.06 0.18 -0.16 0.18 l-3.36 0 l0 2.94 l4.32 0 c0.1 0 0.18 0.08 0.18 0.18 l0 2.14 c0 0.1 -0.08 0.18 -0.18 0.18 l-6.8 0 z M382.528 8.06 l0 10.64 c0 0.12 0.08 0.16 0.16 0.16 l4.6 0 c0.18 0 0.14 -0.24 0 -0.24 l-4.5 0 l0 -5.22 l3.68 0 c0.12 0 0.12 -0.28 0 -0.28 l-3.68 0 l0 -4.96 l4.5 0 c0.14 0 0.18 -0.26 0 -0.26 l-4.6 0 c-0.08 0 -0.16 0.06 -0.16 0.16 z M425.396 9.3 l-2.84 0 c-0.1 0 -0.18 -0.08 -0.18 -0.18 l0 -2.14 c0 -0.1 0.08 -0.18 0.18 -0.18 l8.34 0 c0.1 0 0.18 0.08 0.18 0.18 l0 2.14 c0 0.1 -0.08 0.18 -0.18 0.18 l-2.84 0 l0 10.52 c0 0.1 -0.08 0.18 -0.18 0.18 l-2.3 0 c-0.1 0 -0.18 -0.08 -0.18 -0.18 l0 -10.52 z M429.67600000000004 7.9 l-6.04 0 c-0.14 0 -0.14 0.26 0 0.26 l2.96 0 l0 10.6 c0 0.14 0.26 0.14 0.26 0 l0 -10.6 l2.82 0 c0.2 0 0.18 -0.26 0 -0.26 z M446.02000000000004 20 c-0.1 0 -0.16 -0.08 -0.16 -0.18 l0 -12.84 c0 -0.1 0.06 -0.18 0.16 -0.18 l2.28 0 c0.1 0 0.18 0.08 0.18 0.18 l0 12.84 c0 0.1 -0.08 0.18 -0.18 0.18 l-2.28 0 z M447.06 8 l0 10.78 c0 0.18 0.22 0.18 0.22 0 l0 -10.78 c0 -0.14 -0.22 -0.14 -0.22 0 z M475.184 6.800000000000001 c0.1 0 0.18 0.08 0.18 0.18 l0 12.84 c0 0.1 -0.08 0.18 -0.18 0.18 l-2.18 0 c-0.06 0 -0.16 -0.08 -0.16 -0.18 l0 -7.4 l-2.2 7.46 c-0.04 0.08 -0.08 0.12 -0.16 0.12 l-1.58 0 c-0.06 0 -0.14 -0.04 -0.16 -0.12 l-2.06 -7.6 l0 7.54 c0 0.1 -0.08 0.18 -0.18 0.18 l-2.22 0 c-0.08 0 -0.14 -0.08 -0.14 -0.18 l0 -12.84 c0 -0.1 0.06 -0.18 0.14 -0.18 l2.8 0 c0.08 0 0.16 0.06 0.18 0.12 l2.42 8.1 l2.66 -8.1 c0 -0.06 0.06 -0.12 0.14 -0.12 l2.7 0 z M473.944 18.78 c0 0.14 0.26 0.18 0.26 0 l0 -10.78 c0 -0.04 -0.06 -0.1 -0.12 -0.1 l-0.94 0 c-0.08 0 -0.1 0.06 -0.14 0.1 l-3.32 9.9 l-3.3 -9.92 c0 -0.06 -0.04 -0.08 -0.1 -0.08 l-0.98 0 c-0.06 0 -0.12 0.06 -0.12 0.12 l0 10.76 c0 0.14 0.26 0.18 0.26 0 l0 -10.62 l0.74 0 l3.38 10.16 c0.08 0.14 0.14 0.1 0.24 0 l3.4 -10.16 l0.74 0 l0 10.62 z M491.26800000000003 20 c-0.1 0 -0.16 -0.08 -0.16 -0.18 l0 -12.84 c0 -0.1 0.06 -0.18 0.16 -0.18 l6.8 0 c0.1 0 0.18 0.08 0.18 0.18 l0 2.14 c0 0.1 -0.08 0.18 -0.18 0.18 l-4.32 0 l0 2.72 l3.36 0 c0.1 0 0.16 0.08 0.16 0.18 l0 2.18 c0 0.1 -0.06 0.18 -0.16 0.18 l-3.36 0 l0 2.94 l4.32 0 c0.1 0 0.18 0.08 0.18 0.18 l0 2.14 c0 0.1 -0.08 0.18 -0.18 0.18 l-6.8 0 z M492.26800000000003 8.06 l0 10.64 c0 0.12 0.08 0.16 0.16 0.16 l4.6 0 c0.18 0 0.14 -0.24 0 -0.24 l-4.5 0 l0 -5.22 l3.68 0 c0.12 0 0.12 -0.28 0 -0.28 l-3.68 0 l0 -4.96 l4.5 0 c0.14 0 0.18 -0.26 0 -0.26 l-4.6 0 c-0.08 0 -0.16 0.06 -0.16 0.16 z"/></g><g id="SvgjsG13240" featureKey="nameLeftFeature-0" transform="matrix(1.905288921328338,0,0,1.905288921328338,70.57834025215507,4.923059934373171)" fill="#000"><path d="M9.8644 8.78 l-6.1697 -0.00033103 l0 3.4068 l3.322 0 c0.18644 0 0.33898 0.15254 0.33898 0.33915 l0 1.6778 c0 0.20339 -0.13559 0.3222 -0.33898 0.3222 l-3.322 0 l0 3.1356 l6.1695 0 c0.18644 0 0.33881 0.15238 0.33881 0.33881 l0 1.6613 c0 0.18644 -0.15238 0.33881 -0.33881 0.33881 l-8.2542 0 c-0.18644 0 -0.33898 -0.15238 -0.33898 -0.33881 l0 -12.898 c0 -0.16949 0.13559 -0.32203 0.3222 -0.32203 l8.2712 0 c0.18644 0 0.33881 0.15254 0.33881 0.32203 l0 1.6949 c0 0.18644 -0.15238 0.32203 -0.33881 0.32203 z M25.45713559322034 19.62712 c0.10169 0.20339 0.034229 0.37271 -0.20305 0.37271 l-1.9831 0 c-0.16949 0 -0.27119 -0.08458 -0.33898 -0.22017 l-0.91525 -1.9322 l-6.5256 0 l-0.91525 1.9322 c-0.067797 0.13559 -0.18644 0.22017 -0.33898 0.22017 l-2 0 c-0.20339 0 -0.32203 -0.16933 -0.22034 -0.37271 l6.3898 -13.102 c0.067797 -0.11881 0.15238 -0.16966 0.23712 -0.16966 l0.20339 0 c0.10169 0 0.16949 0.050847 0.23729 0.16966 z M16.52563559322034 15.6441 l4.4576 0 l-2.2203 -4.7288 z M27.050850677966103 17.6442 l0.96576 -1.1188 c0.20339 -0.23746 0.45763 -0.23746 0.64407 -0.10186 c0.55932 0.47458 1.5593 1.3729 2.8136 1.3729 c1.2203 0 2.2712 -0.4578 2.2712 -1.5086 c0 -1.1017 -1.1356 -1.4237 -2.3051 -1.8983 c-2.4237 -1 -4.1864 -2.0339 -4.1864 -4.2373 c0 -1.7288 1.2712 -3.8136 4.339 -3.8136 c2.0847 0 3.5934 1.1866 4.0341 1.6273 c0.18644 0.18644 0.28814 0.42373 0.11864 0.62712 l-0.84746 1.1186 c-0.16966 0.22034 -0.40678 0.32203 -0.67797 0.13559 c-0.54237 -0.42373 -1.4237 -1.2034 -2.6102 -1.2034 c-1.2034 0 -1.9492 0.69492 -1.9492 1.5085 c0 0.89831 0.77966 1.339 2.0508 1.8475 c2.2203 0.93254 4.4407 1.9325 4.4407 4.3224 c0 1.9831 -1.9659 3.7964 -4.6439 3.7964 c-2.4237 0 -3.9322 -1.5422 -4.3559 -1.949 c-0.15254 -0.13559 -0.30508 -0.32203 -0.10169 -0.52542 z M49.45725423728814 6.441000000000001 c0.18661 0 0.30525 0.20339 0.18661 0.38983 l-5.0169 7.7119 l0 5.1188 c0 0.20339 -0.11864 0.33881 -0.30525 0.33881 l-1.2712 0 c-0.52542 0 -0.83051 -0.37288 -0.83051 -0.86441 l0 -4.5932 l-5 -7.7119 c-0.11864 -0.18644 0 -0.38983 0.18644 -0.38983 l2.1695 0 c0.18644 0 0.27119 0.15254 0.37288 0.32203 l3.4746 5.3559 l3.4576 -5.3559 c0.11864 -0.16949 0.20339 -0.32203 0.37288 -0.32203 l2.2034 0 z"/></g><g id="SvgjsG13241" featureKey="nameRightFeature-0" transform="matrix(1.902973122252164,0,0,1.902973122252164,172.54913126479823,4.9696688335293135)" fill="#000"><path d="M12.508 14.5424 c0.16949 0 0.23746 0.067631 0.23746 0.23712 l0 3.0678 l-0.016949 0 c0 0.067797 -0.050847 0.16949 -0.13559 0.25424 c-1.2544 1.2542 -2.8814 2.0168 -4.8983 2.0168 c-3.8136 0 -6.9322 -3.0168 -6.9322 -6.8812 c0 -3.8475 3.1186 -6.9153 6.9322 -6.9153 c1.9322 0 3.661 0.74576 4.9322 2.0169 c0.15254 0.15254 0.16949 0.27119 0.067797 0.35593 l-0.71186 0.59322 c-0.11864 0.10169 -0.22034 0.10169 -0.33898 -0.016949 c-0.71186 -0.74559 -2.1186 -1.6608 -3.8475 -1.6608 c-3.678 0 -5.7119 2.9831 -5.7119 5.6271 c0 2.678 2.0339 5.5932 5.7119 5.5932 c1.5932 0 2.8475 -0.74576 3.61 -1.4407 l0 -1.5763 l-3.5763 0 c-0.15254 0 -0.22034 -0.067797 -0.22034 -0.20339 l0 -0.83051 c0 -0.16949 0.067797 -0.23729 0.22034 -0.23729 l4.678 0 z M24.389372881355932 19.76288 c0.084746 0.13559 0.033732 0.23712 -0.11881 0.23712 l-0.88136 0 c-0.27119 0 -0.45763 -0.22017 -0.55932 -0.37271 l-3 -4.2542 l-0.050847 0 l-3.8814 0 l0 4.3898 c0 0.15254 -0.067797 0.23712 -0.23729 0.23712 l-0.88136 0 c-0.15254 0 -0.22034 -0.08458 -0.22034 -0.23712 l0 -13.102 c0 -0.15254 0.067797 -0.22034 0.22034 -0.22034 l5 0 c3.1695 0 4.6273 2.4576 4.6273 4.4746 c0 1.7288 -1.0508 3.7288 -3.2712 4.3051 z M15.898172881355933 7.728999999999999 l0.00016552 6.3727 l3.7797 0 c2.3051 0 3.4066 -1.6102 3.4066 -3.2203 c0 -1.5932 -1.1186 -3.1524 -3.4068 -3.1524 l-3.7797 0 z M33.220388135593225 20.11864 c3.8305 0 6.9492 -3.0337 6.9492 -6.8981 c0 -3.8475 -3.1186 -6.8983 -6.9492 -6.8983 c-3.8475 0 -6.9661 3.0508 -6.9661 6.8983 c0 3.8644 3.1186 6.8981 6.9661 6.8981 z M33.220388135593225 18.8307 c-3.0847 0 -5.6441 -2.5085 -5.6441 -5.6102 s2.5593 -5.6102 5.6441 -5.6102 c3.0846 0 5.61 2.5085 5.61 5.6102 s-2.5254 5.6102 -5.61 5.6102 z M53.847440677966105 17.729 c0.11864 0.08458 0.084746 0.22017 -0.067797 0.37271 c-1.2544 1.2542 -2.8814 2.0168 -4.8983 2.0168 c-3.8136 0 -6.9322 -3.0168 -6.9322 -6.8812 c0 -3.8475 3.1186 -6.9153 6.9322 -6.9153 c1.9322 0 3.661 0.74576 4.9322 2.0169 c0.15254 0.15254 0.16949 0.27119 0.067797 0.35593 l-0.71186 0.59322 c-0.11864 0.10169 -0.22034 0.10169 -0.33898 -0.016949 c-0.71186 -0.74559 -2.1186 -1.6608 -3.8475 -1.6608 c-3.678 0 -5.7119 2.9831 -5.7119 5.6271 c0 2.678 2.0339 5.5932 5.7119 5.5932 c1.7288 0 3.0508 -0.88136 3.7966 -1.6271 c0.13559 -0.13559 0.23729 -0.16949 0.35593 -0.067797 z M64.69471355932204 7.728999999999999 l-7.3556 0.00049656 l0 4.9659 l4.5424 0 c0.15254 0 0.23729 0.067797 0.23729 0.23729 l0 0.81339 c0 0.15254 -0.084746 0.22034 -0.23729 0.22034 l-4.5424 0 l0 4.7458 l7.3559 0 c0.15254 0 0.23712 0.084746 0.23712 0.23712 l0 0.81356 c0 0.16949 -0.067797 0.23712 -0.23729 0.23712 l-8.4746 0 c-0.15254 0 -0.22034 -0.08458 -0.22034 -0.22017 l0 -13.119 c0 -0.15254 0.084746 -0.22034 0.22034 -0.22034 l8.4746 0 c0.15254 0 0.23712 0.084746 0.23712 0.22034 l0 0.84746 c0 0.13559 -0.067797 0.22034 -0.23729 0.22034 z M76.88089830508474 19.76288 c0.084746 0.13559 0.033732 0.23712 -0.11881 0.23712 l-0.88136 0 c-0.27119 0 -0.45763 -0.22017 -0.55932 -0.37271 l-3 -4.2542 l-0.050847 0 l-3.8814 0 l0 4.3898 c0 0.15254 -0.067797 0.23712 -0.23729 0.23712 l-0.88136 0 c-0.15254 0 -0.22034 -0.08458 -0.22034 -0.23712 l0 -13.102 c0 -0.15254 0.067797 -0.22034 0.22034 -0.22034 l5 0 c3.1695 0 4.6273 2.4576 4.6273 4.4746 c0 1.7288 -1.0508 3.7288 -3.2712 4.3051 z M68.38969830508475 7.728999999999999 l0.00016552 6.3727 l3.7797 0 c2.3051 0 3.4066 -1.6102 3.4066 -3.2203 c0 -1.5932 -1.1186 -3.1524 -3.4068 -3.1524 l-3.7797 0 z M89.77962711864407 6.441000000000001 c0.08458 0 0.15188 0.10169 0.084083 0.20339 l-5.4064 7.7458 l0 5.3729 c0 0.15254 -0.067797 0.23712 -0.20339 0.23712 l-0.67797 0 c-0.28814 0 -0.44068 -0.18644 -0.44068 -0.47441 l0 -5.1356 l-5.4068 -7.7458 c-0.050847 -0.10169 0 -0.20339 0.10186 -0.20339 l1.1864 0 c0.10169 0 0.15254 0.067797 0.20339 0.16949 l4.5763 6.4746 l4.5764 -6.4746 c0.067797 -0.10169 0.10169 -0.16949 0.20339 -0.16949 l1.2034 0 z"/></g>
			</g>
		</svg>
	